<?xml version="1.0" standalone="no"?>
<!DOCTYPE svg PUBLIC "-//W3C//DTD SVG 20010904//EN"
 "http://www.w3.org/TR/2001/REC-SVG-20010904/DTD/svg10.dtd">
<svg version="1.0" xmlns="http://www.w3.org/2000/svg"
 width="1068.000000pt" height="600.000000pt" viewBox="0 0 1068.000000 600.000000"
 preserveAspectRatio="xMidYMid meet">

<g transform="translate(0.000000,600.000000) scale(0.100000,-0.100000)"
fill="#000000" stroke="none">
<path d="M0 3000 l0 -3000 5340 0 5340 0 0 3000 0 3000 -5340 0 -5340 0 0
-3000z m4781 484 c59 -18 144 -58 153 -73 4 -5 -44 -67 -106 -138 -62 -70
-127 -145 -145 -165 l-32 -37 -151 160 -150 161 22 18 c32 24 105 61 153 76
57 18 191 17 256 -2z m309 -59 c7 -8 10 -20 7 -27 -7 -19 -405 -471 -429 -487
-19 -14 -26 -9 -120 89 -104 110 -119 142 -68 148 21 2 39 -11 94 -73 37 -41
71 -75 76 -75 5 0 96 99 202 220 106 121 200 220 209 220 9 0 22 -7 29 -15z
m-755 -95 c17 -18 16 -21 -14 -59 -17 -21 -44 -66 -59 -98 -24 -52 -27 -69
-27 -168 0 -102 2 -114 31 -175 144 -301 534 -335 734 -65 l41 55 545 0 c495
0 545 -1 551 -16 3 -9 2 -24 -4 -33 -9 -14 -60 -16 -531 -12 l-520 4 -18 -23
c-72 -90 -123 -133 -203 -173 l-84 -42 -126 0 c-124 0 -127 1 -201 36 -166 79
-268 223 -286 403 -11 115 32 260 106 349 36 43 41 44 65 17z m985 -195 c0
-22 -4 -25 -40 -25 l-40 0 0 -95 c0 -95 0 -95 -25 -95 -25 0 -25 0 -25 95 l0
95 -40 0 c-36 0 -40 3 -40 25 l0 25 105 0 105 0 0 -25z m120 -95 l0 -120 -30
0 -30 0 0 120 0 120 30 0 30 0 0 -120z m170 59 c19 -33 40 -65 46 -70 8 -6 24
12 53 61 34 56 47 70 66 70 l25 0 0 -120 0 -120 -30 0 c-29 0 -29 1 -32 62
l-3 61 -32 -51 c-18 -29 -36 -52 -42 -52 -5 0 -25 26 -45 58 l-35 57 -1 -67
c0 -66 -1 -68 -25 -68 l-25 0 0 120 c0 118 0 120 23 120 16 0 31 -15 57 -61z
m460 36 c0 -24 -2 -25 -66 -25 -62 0 -65 -1 -62 -22 3 -20 10 -23 56 -26 44
-3 52 -6 52 -23 0 -16 -7 -19 -55 -19 -52 0 -55 -1 -55 -25 0 -24 2 -25 65
-25 63 0 65 -1 65 -25 0 -25 -1 -25 -90 -25 l-90 0 0 120 0 120 90 0 c89 0 90
0 90 -25z m-870 -525 c11 -22 22 -40 25 -40 2 0 14 18 26 40 13 22 26 40 31
40 4 0 8 -27 8 -60 0 -33 -4 -60 -10 -60 -5 0 -10 19 -10 43 l-1 42 -20 -39
-21 -38 -23 38 -24 39 -4 -45 c-3 -39 -4 -36 -5 18 -1 34 0 62 3 62 2 0 14
-18 25 -40z m209 -16 c12 -32 19 -59 16 -62 -2 -3 -7 3 -11 12 -8 21 -74 23
-74 1 0 -8 -4 -15 -10 -15 -6 0 -6 8 -1 23 27 67 42 97 50 97 4 0 18 -25 30
-56z m103 10 l33 -47 6 49 6 49 1 -62 c1 -35 0 -63 -2 -63 -3 0 -20 21 -38 46
l-33 47 -6 -49 -6 -49 -1 63 c-1 34 0 62 2 62 3 0 20 -21 38 -46z m173 -14
c22 -52 25 -85 4 -47 -13 22 -65 23 -73 1 -4 -9 -9 -14 -12 -11 -9 9 38 118
49 114 5 -1 19 -27 32 -57z m141 49 c4 -7 0 -9 -14 -5 -33 11 -62 -10 -62 -44
0 -52 63 -67 73 -18 4 16 5 14 4 -7 -2 -26 -6 -30 -33 -33 -19 -2 -36 3 -44
13 -17 20 -17 69 0 89 14 18 66 21 76 5z m107 4 c-25 -3 -33 -9 -33 -24 0 -14
7 -19 25 -19 14 0 25 -4 25 -10 0 -5 -11 -10 -25 -10 -18 0 -25 -5 -25 -19 0
-15 8 -21 33 -24 28 -3 26 -4 -10 -5 l-43 -2 0 60 0 60 43 -2 c36 -1 38 -2 10
-5z m106 -33 c12 -22 24 -40 26 -40 3 0 14 18 25 40 11 22 23 40 25 40 3 0 4
-28 3 -62 -1 -54 -2 -57 -5 -18 l-4 45 -24 -39 -23 -38 -21 38 -20 39 -1 -42
c0 -24 -4 -43 -10 -43 -6 0 -10 27 -10 60 0 33 4 60 8 60 5 0 18 -18 31 -40z
m184 33 c-25 -3 -33 -9 -33 -24 0 -14 7 -19 25 -19 14 0 25 -4 25 -10 0 -5
-11 -10 -25 -10 -18 0 -25 -5 -25 -19 0 -15 8 -21 38 -24 34 -3 33 -4 -10 -5
l-48 -2 0 60 0 60 43 -2 c36 -1 38 -2 10 -5z m119 -39 l33 -47 6 49 6 49 1
-62 c1 -35 0 -63 -2 -63 -3 0 -20 21 -38 46 l-33 47 -6 -49 -6 -49 -1 63 c-1
34 0 62 2 62 3 0 20 -21 38 -46z m161 39 c-21 -4 -23 -10 -23 -59 0 -30 -4
-54 -10 -54 -5 0 -10 24 -10 54 0 49 -2 55 -22 59 -13 2 2 4 32 4 30 0 45 -2
33 -4z"/>
<path d="M5363 2600 c-11 -28 -10 -30 14 -30 21 0 23 3 18 23 -12 36 -20 38
-32 7z"/>
<path d="M5641 2606 c-13 -33 -10 -39 17 -34 17 3 17 6 6 33 l-12 30 -11 -29z"/>
</g>
</svg>
